<?xml version="1.0" standalone="no"?>
<!DOCTYPE svg PUBLIC "-//W3C//DTD SVG 20010904//EN"
 "http://www.w3.org/TR/2001/REC-SVG-20010904/DTD/svg10.dtd">
<svg version="1.0" xmlns="http://www.w3.org/2000/svg"
 width="1024.000000pt" height="1024.000000pt" viewBox="0 0 1024.000000 1024.000000"
 preserveAspectRatio="xMidYMid meet">

<g transform="translate(0.000000,1024.000000) scale(0.100000,-0.100000)"
fill="#000000" stroke="none">
<path d="M6635 8281 c-234 -38 -428 -176 -481 -344 l-16 -52 -76 37 c-109 53
-357 133 -503 162 -194 38 -402 52 -589 38 -326 -25 -634 -117 -746 -224 l-32
-30 -7 30 c-13 63 -159 228 -260 294 -168 110 -399 110 -630 -2 -259 -125
-408 -365 -406 -655 0 -102 29 -233 68 -308 23 -46 93 -147 101 -147 4 -1 20
-11 35 -24 l29 -23 -55 -104 c-64 -120 -156 -386 -187 -540 -20 -96 -21 -135
-4 -196 5 -20 2 -23 -20 -23 -15 0 -40 -7 -56 -15 -90 -46 -96 -166 -12 -237
19 -16 31 -37 35 -63 14 -89 169 -360 301 -530 132 -167 358 -360 527 -449
l87 -45 -25 -23 c-76 -71 -322 -513 -412 -739 -115 -290 -128 -460 -51 -671
54 -148 126 -230 253 -289 l74 -34 6 -125 c11 -230 85 -653 148 -848 84 -258
153 -345 329 -415 131 -52 408 -72 522 -37 53 15 118 68 142 115 30 56 29 164
-2 222 -20 39 -21 45 -8 75 8 18 30 80 49 138 19 58 38 104 43 103 5 -1 81 -7
169 -13 133 -11 481 -9 589 3 13 1 22 -8 31 -33 7 -19 33 -78 58 -131 l46 -97
-22 -43 c-17 -35 -22 -61 -22 -125 0 -73 3 -84 29 -118 72 -94 154 -122 331
-112 277 15 498 111 580 252 68 116 153 398 204 674 25 132 60 439 61 521 0
10 17 23 43 33 155 59 296 373 272 606 -28 269 -195 660 -443 1034 l-79 119
66 34 c156 82 398 296 504 446 49 68 107 184 107 212 0 8 8 15 18 15 25 0 80
42 107 83 37 54 58 141 51 206 -8 70 -47 152 -89 187 l-32 27 4 146 c5 231
-45 473 -146 704 -45 104 -53 131 -42 137 107 61 197 194 229 340 77 359 -47
643 -351 795 -129 65 -313 97 -444 76z m-2860 -146 c141 -37 256 -135 333
-283 54 -104 65 -110 115 -67 118 101 384 187 710 230 198 25 374 16 659 -35
251 -45 444 -119 559 -216 51 -42 79 -45 79 -6 0 40 24 120 50 172 42 82 80
119 165 160 96 47 207 65 355 57 115 -6 180 -28 277 -96 166 -117 233 -248
233 -456 -1 -224 -73 -382 -215 -472 -25 -15 -48 -36 -51 -45 -6 -19 14 -61
58 -126 111 -162 187 -492 173 -753 l-7 -126 36 -56 c47 -73 76 -148 76 -196
0 -46 -49 -125 -96 -156 -19 -12 -53 -58 -87 -115 -129 -221 -273 -368 -501
-509 -148 -92 -296 -162 -450 -212 -127 -42 -662 -179 -700 -179 -21 -1 -21
-1 -1 -12 11 -6 30 -20 42 -31 19 -17 30 -18 80 -12 95 11 240 43 376 81 l128
36 30 -28 c41 -39 83 -130 115 -244 23 -87 26 -120 34 -370 8 -269 30 -490 50
-515 7 -9 3 -27 -15 -61 -14 -28 -28 -75 -31 -109 -6 -57 -5 -62 28 -105 61
-81 212 -164 320 -177 48 -6 48 -6 44 -37 -3 -17 -8 -58 -12 -91 -23 -219
-108 -610 -174 -807 -95 -280 -236 -381 -552 -395 -124 -6 -127 -5 -151 19
-29 29 -47 102 -47 189 0 48 -8 81 -40 156 -22 53 -40 101 -40 106 0 19 -75
166 -87 171 -6 2 -51 -2 -100 -11 -105 -18 -558 -13 -712 8 -88 12 -94 11
-107 -6 -8 -10 -14 -31 -14 -45 0 -15 -16 -57 -35 -94 -19 -37 -35 -74 -35
-82 0 -7 -13 -41 -30 -75 -27 -56 -28 -64 -19 -115 11 -62 6 -99 -24 -163 -29
-63 -64 -75 -192 -66 -390 26 -483 137 -599 715 -31 155 -46 284 -54 463 l-7
138 25 6 c70 17 221 112 268 169 17 20 33 51 36 69 9 45 -11 127 -40 170 -22
33 -23 38 -9 64 23 45 34 142 45 387 17 407 60 621 143 711 29 32 47 43 69 43
16 0 113 -16 216 -35 195 -37 472 -76 485 -68 4 2 7 15 7 28 0 32 -50 47 -255
81 -294 47 -466 90 -680 167 -242 88 -338 135 -490 237 -270 182 -558 553
-619 796 -9 34 -25 81 -36 105 -23 52 -26 99 -6 99 8 0 42 -7 76 -16 58 -15
114 -12 125 6 3 5 -13 41 -35 82 -22 40 -40 87 -40 104 0 67 84 370 149 534
28 70 130 250 142 250 22 0 5 18 -45 48 -59 35 -127 106 -156 163 -28 54 -54
194 -54 289 0 130 62 295 146 386 135 146 404 228 593 179z m2829 -3343 c180
-292 293 -529 376 -787 40 -127 60 -238 60 -342 0 -109 -14 -172 -61 -269 -62
-132 -148 -194 -265 -194 -59 0 -137 86 -205 226 l-53 109 -7 455 c-7 483 -7
486 -63 669 -9 30 -16 58 -16 63 0 4 35 25 78 47 42 22 86 46 97 55 11 8 22
15 25 15 3 0 18 -21 34 -47z m-2555 -52 c18 0 22 -4 16 -17 -28 -73 -47 -129
-65 -201 -30 -120 -69 -491 -83 -795 l-13 -263 -37 -79 c-89 -187 -176 -231
-315 -161 -140 71 -221 264 -209 498 7 126 46 255 147 483 72 164 232 476 284
555 20 30 36 58 36 61 0 4 48 -13 108 -37 59 -24 118 -44 131 -44z"/>
<path d="M6662 7888 c-76 -26 -172 -147 -172 -215 l1 -28 32 39 c47 58 141
116 189 116 75 0 180 -76 224 -162 54 -106 18 -233 -82 -289 -62 -35 -88 -63
-80 -84 12 -32 129 5 184 58 58 56 112 186 112 272 0 151 -147 289 -320 301
-30 2 -70 -2 -88 -8z"/>
<path d="M3489 7863 c-91 -14 -218 -145 -239 -247 -14 -69 -15 -173 -1 -209
27 -71 155 -164 214 -155 43 6 30 36 -46 110 -68 67 -75 77 -81 123 -16 120
85 257 209 285 65 15 108 0 180 -60 33 -27 66 -50 73 -50 22 0 13 46 -18 88
-65 90 -175 133 -291 115z"/>
<path d="M4126 6370 c-38 -12 -62 -36 -75 -71 l-10 -30 34 36 c27 30 40 36 66
33 35 -3 64 -34 74 -79 9 -38 -29 -80 -74 -81 -28 -1 -41 6 -67 36 l-32 37
-16 -43 c-25 -62 -23 -173 4 -234 63 -143 175 -168 277 -62 116 121 105 349
-21 434 -40 28 -114 39 -160 24z m68 -332 c25 -40 -35 -76 -67 -40 -15 17 -15
20 -1 41 18 26 51 25 68 -1z"/>
<path d="M6046 6370 c-30 -9 -76 -47 -76 -62 0 -5 12 0 26 11 43 34 86 26 109
-20 22 -41 18 -77 -10 -104 -35 -36 -77 -33 -108 6 l-25 32 -13 -24 c-19 -35
-17 -144 4 -214 31 -101 123 -171 200 -151 64 16 127 84 149 160 18 63 12 199
-11 244 -50 99 -152 149 -245 122z m100 -346 c7 -29 -6 -47 -31 -42 -28 5 -41
33 -26 52 21 25 50 20 57 -10z"/>
<path d="M5011 6144 c-66 -18 -81 -29 -81 -61 0 -59 62 -135 120 -148 l30 -7
0 -79 c0 -121 -35 -173 -116 -171 -36 0 -52 6 -75 28 -16 15 -31 36 -35 46 -7
23 -54 25 -54 3 0 -41 55 -117 102 -141 81 -42 217 17 230 100 2 16 8 13 28
-17 57 -84 136 -112 219 -77 60 26 93 68 95 118 2 55 -29 56 -50 2 -20 -49
-38 -60 -99 -60 -39 0 -52 5 -74 29 -30 33 -50 89 -58 165 l-5 51 51 23 c76
34 113 116 76 169 -29 42 -194 57 -304 27z"/>
</g>
</svg>
